# xmcd
#
# Track frame offsets: 
#        150
#        17084
#        29848
#        51483
#        72372
#        90206
#        109580
#        125841
#        140700
#        154131
#        172702
#        188578
#
# Disc length: 2746 seconds
#
# Revision: 0
# Processed by: cddbd v1.5.2PL0 Copyright (c) Steve Scherf et al.
# Submitted via: ExactAudioCopy v0.99pb5
#
DISCID=a20ab80c
DTITLE=Roberto Ciotti - Unplugged
DYEAR=2007
DGENRE=Blues
TTITLE0=Blue square
TTITLE1=Hell boogie
TTITLE2=When's my time
TTITLE3=No more blue
TTITLE4=Hey Joe
TTITLE5=Road'n'rail
TTITLE6=Me and the wind
TTITLE7=Cool man
TTITLE8=You can change the weather
TTITLE9=Bella chica
TTITLE10=Magic years
TTITLE11=Castles of sand
EXTD=
EXTT0=
EXTT1=
EXTT2=
EXTT3=
EXTT4=
EXTT5=
EXTT6=
EXTT7=
EXTT8=
EXTT9=
EXTT10=
EXTT11=
PLAYORDER=
